<svg xmlns="http://www.w3.org/2000/svg" viewBox="0 0 446.39 446.51"><defs><style>.cls-1{fill:#fff;}</style></defs><g id="Layer_2" data-name="Layer 2"><g id="Layer_1-2" data-name="Layer 1"><path class="cls-1" d="M36,169.31V282.88C30.68,372.4,85,448.73,199.42,446.35a92.58,92.58,0,0,0,13.32-1.22c11.1-2,25.95-9.65,45.16-18.19a17.72,17.72,0,0,1,14-.2c18.8,7.74,44.2,19.77,63.05,19.77,15.88,0,31.53-4,47.21-10.3,38.8-15.63,62-48.79,64.1-84.8,4.28-73-75.5-99.74-102.57-109-34.86-17.31-40.56-29.95-42.24-40.37a26.32,26.32,0,0,1,7.45-22.66,33.41,33.41,0,0,1,12.72-8.31c21.49-7.67,41-12,65.67-21.87,10.95-4.4,24.3-11.1,33.65-18.29,9.72-7.47,26.44-29.18,25.26-52.37C444,36.66,423,13.84,404.42,1.75,396.29-3.53,385.73,3.94,388,13.36c5.06,21.16-.63,42.93-.63,42.93-9.76,22.29-20.59,37.81-54.47,43.12-26.22,4.11-58.05,7.45-76.36,23.49-15.43,13.54-33.08,37.71-33.08,84.66.62,16.57,4,31.73,12.38,45.94,19.49,32.87,48.87,48.2,72.92,58.68l8.37,2.74c44.92,15.25,50.67,24.26,50.2,32.2-.5,8.82-7.3,18.16-16.08,22.22-24.72,11.37-62.55-7-78.42-30.67l-.08-.12a10.6,10.6,0,0,0-16.54-1.4c-32.78,34.79-42.45,30.75-66.63,32.23-41.95,2.57-76.24-29.23-76.24-71.25V100.57A61,61,0,0,0,87.08,50.44L54.63,27.94a24.46,24.46,0,0,0-34.07,6.21L4.32,57.73a24.43,24.43,0,0,0,6.22,34l11.57,8A32.1,32.1,0,0,1,36,126.09v43.22Z"/></g></g></svg>