<svg xmlns="http://www.w3.org/2000/svg" viewBox="0 0 503.14 176.68"><defs><style>.cls-1{fill:#fff;}</style></defs><g id="Layer_2" data-name="Layer 2"><g id="Layer_1-2" data-name="Layer 1"><path class="cls-1" d="M135.56,176.58h-2c-34.79,0-58-31.9-58-63.1l1.09-61a15,15,0,1,1,30,0v61c0,17.1,12.5,32,26.92,31.84l2,.11c23.27,0,31.39-18.62,31.39-31.95v-10c0-45.36,28.72-66,59.16-66,34.15,0,61.38,30.23,61.38,66V161a15,15,0,1,1-30,0V103.48c0-24.07-12.76-36-30.34-36-7.79,0-30.2,2.59-30.2,36v10C197,153,168.87,176.58,135.56,176.58Z"/><rect class="cls-1" x="473.89" width="29.25" height="29.25" rx="4.36"/><path class="cls-1" d="M421.8,98.34c-13.18-6.54-15.33-11.32-16-15.25a10,10,0,0,1,2.82-8.57,12.64,12.64,0,0,1,4.81-3.14c8.12-2.9,15.48-4.52,24.82-8.27A57.81,57.81,0,0,0,451,56.2c3.67-2.82,10-11,9.54-19.79-.81-15.84-8.74-24.47-15.77-29a4.12,4.12,0,0,0-6.22,4.39A37.87,37.87,0,0,1,438.31,28c-3.69,8.43-7.78,14.29-20.58,16.3-9.91,1.56-21.94,2.82-28.86,8.88-5.84,5.12-12.51,14.25-12.51,32A35.67,35.67,0,0,0,381,102.52c7.37,12.42,18.47,18.22,27.56,22.18l3.17,1c17,5.77,19.15,9.17,19,12.17a10.63,10.63,0,0,1-6.08,8.4c-9.34,4.3-23.64-2.64-29.64-11.59l0,0a4,4,0,0,0-6.25-.53c-12.39,13.15-16,11.62-25.18,12.18a26.75,26.75,0,0,1-28.82-26.93V70.7h16.62a7.37,7.37,0,0,0,7.38-7.38V49.14a7.38,7.38,0,0,0-7.38-7.38H334.74V29.1a23.06,23.06,0,0,0-9.91-19l-12.27-8.5A9.23,9.23,0,0,0,299.69,4l-6.14,8.91a9.23,9.23,0,0,0,2.35,12.83l4.37,3a12.11,12.11,0,0,1,5.23,10v3h-9.81a7.39,7.39,0,0,0-7.38,7.38V63.32a7.38,7.38,0,0,0,7.38,7.38h9.81v42.92c-2,33.84,18.52,62.69,61.79,61.79a35,35,0,0,0,5-.46c4.19-.77,9.81-3.65,17.07-6.88a6.7,6.7,0,0,1,5.27-.07c7.11,2.92,16.71,7.47,23.83,7.47a48,48,0,0,0,17.85-3.89c14.66-5.91,23.43-18.44,24.22-32.05C462.18,111.94,432,101.83,421.8,98.34Z"/><path class="cls-1" d="M84.31,166.73c-5.06-6.88-9.35-11.61-11.88-15.67l-.08-.11a7.38,7.38,0,0,0-1.93-2,5.07,5.07,0,0,0-3.13-1.31h-.13c-.27,0-.54-.08-.82-.09a41.74,41.74,0,0,1-6.28-.63c-2.15-.44-3.78-.93-4.29-1.09-7.78-2.6-12.94-8.29-12.94-18.31V37.26a23.07,23.07,0,0,0-9.92-18.95L20.65,9.81A9.24,9.24,0,0,0,7.77,12.16L1.63,21.07A9.23,9.23,0,0,0,4,33.9l4.38,3a12.13,12.13,0,0,1,5.23,10v74.87c-2,33.28,17.87,55,59.68,54.81a38.06,38.06,0,0,0,8.79-.33C84.91,175.72,86.26,169.38,84.31,166.73Z"/></g></g></svg>